HIERARCHY
ROOT Hips
{
	OFFSET 0.764148 87.890884 8.039708
	CHANNELS 6 Xposition Yposition Zposition Zrotation Yrotation Xrotation 
	JOINT Spine
	{
		OFFSET -0.000000 8.814246 -2.080107
		CHANNELS 3 Zrotation Yrotation Xrotation
		JOINT Spine1
		{
			OFFSET 0.000000 8.844141 0.000000
			CHANNELS 3 Zrotation Yrotation Xrotation
			JOINT Spine2
			{
				OFFSET -0.000000 11.682268 -0.000000
				CHANNELS 3 Zrotation Yrotation Xrotation
				JOINT Spine3
				{
					OFFSET 0.000000 11.746700 0.000000
					CHANNELS 3 Zrotation Yrotation Xrotation
					JOINT Neck
					{
						OFFSET 0.000000 17.658264 0.000000
						CHANNELS 3 Zrotation Yrotation Xrotation
						JOINT Neck1
						{
							OFFSET -0.000000 5.101515 0.000000
							CHANNELS 3 Zrotation Yrotation Xrotation
							JOINT Head
							{
								OFFSET 0.000000 5.101515 -0.000000
								CHANNELS 3 Zrotation Yrotation Xrotation
								JOINT HeadEnd
								{
									OFFSET 0.000000 11.655085 0.000000
									CHANNELS 3 Zrotation Yrotation Xrotation
									End Site
									{
										OFFSET 0.000000 0.000000 0.000000
									}
								}
							}
						}
					}
					JOINT RightShoulder
					{
						OFFSET -2.625389 11.175210 -0.000000
						CHANNELS 3 Zrotation Yrotation Xrotation
						JOINT RightArm
						{
							OFFSET 0.000000 10.434715 -0.000000
							CHANNELS 3 Zrotation Yrotation Xrotation
							JOINT RightForeArm
							{
								OFFSET 0.000000 29.628420 -0.000000
								CHANNELS 3 Zrotation Yrotation Xrotation
								JOINT RightHand
								{
									OFFSET 0.000000 22.857611 0.000000
									CHANNELS 3 Zrotation Yrotation Xrotation
									JOINT RightHandThumb1
									{
										OFFSET -2.867323 3.959563 2.944291
										CHANNELS 3 Zrotation Yrotation Xrotation
										JOINT RightHandThumb2
										{
											OFFSET 0.000000 3.350399 -0.000000
											CHANNELS 3 Zrotation Yrotation Xrotation
											JOINT RightHandThumb3
											{
												OFFSET 0.000000 3.756509 -0.000000
												CHANNELS 3 Zrotation Yrotation Xrotation
												JOINT RightHandThumb4
												{
													OFFSET 0.000000 3.147345 -0.000000
													CHANNELS 3 Zrotation Yrotation Xrotation
													End Site
													{
														OFFSET 0.000000 0.000000 0.000000
													}
												}
											}
										}
									}
									JOINT RightHandIndex1
									{
										OFFSET -0.086752 10.030893 2.345280
										CHANNELS 3 Zrotation Yrotation Xrotation
										JOINT RightHandIndex2
										{
											OFFSET -0.000000 4.061090 -0.000000
											CHANNELS 3 Zrotation Yrotation Xrotation
											JOINT RightHandIndex3
											{
												OFFSET 0.000000 3.248873 -0.000000
												CHANNELS 3 Zrotation Yrotation Xrotation
												JOINT RightHandIndex4
												{
													OFFSET 0.000000 2.639709 0.000000
													CHANNELS 3 Zrotation Yrotation Xrotation
													End Site
													{
														OFFSET 0.000000 0.000000 0.000000
													}
												}
											}
										}
									}
									JOINT RightHandMiddle1
									{
										OFFSET 0.104102 9.502952 0.006768
										CHANNELS 3 Zrotation Yrotation Xrotation
										JOINT RightHandMiddle2
										{
											OFFSET 0.000000 4.568727 -0.000000
											CHANNELS 3 Zrotation Yrotation Xrotation
											JOINT RightHandMiddle3
											{
												OFFSET 0.000000 3.654981 -0.000000
												CHANNELS 3 Zrotation Yrotation Xrotation
												JOINT RightHandMiddle4
												{
													OFFSET 0.000000 2.741236 -0.000000
													CHANNELS 3 Zrotation Yrotation Xrotation
													End Site
													{
														OFFSET 0.000000 0.000000 0.000000
													}
												}
											}
										}
									}
									JOINT RightHandRing1
									{
										OFFSET 0.086752 8.921708 -2.267442
										CHANNELS 3 Zrotation Yrotation Xrotation
										JOINT RightHandRing2
										{
											OFFSET 0.000000 4.061090 -0.000000
											CHANNELS 3 Zrotation Yrotation Xrotation
											JOINT RightHandRing3
											{
												OFFSET -0.000000 3.654981 -0.000000
												CHANNELS 3 Zrotation Yrotation Xrotation
												JOINT RightHandRing4
												{
													OFFSET -0.000000 2.741236 -0.000000
													CHANNELS 3 Zrotation Yrotation Xrotation
													End Site
													{
														OFFSET 0.000000 0.000000 0.000000
													}
												}
											}
										}
									}
									JOINT RightHandPinky1
									{
										OFFSET -0.173504 7.976997 -4.467199
										CHANNELS 3 Zrotation Yrotation Xrotation
										JOINT RightHandPinky2
										{
											OFFSET -0.000000 3.350399 -0.000000
											CHANNELS 3 Zrotation Yrotation Xrotation
											JOINT RightHandPinky3
											{
												OFFSET 0.000000 2.842763 0.000000
												CHANNELS 3 Zrotation Yrotation Xrotation
												JOINT RightHandPinky4
												{
													OFFSET -0.000000 2.639709 -0.000000
													CHANNELS 3 Zrotation Yrotation Xrotation
													End Site
													{
														OFFSET 0.000000 0.000000 0.000000
													}
												}
											}
										}
									}
									JOINT RightForeArmEnd
									{
										OFFSET 0.000000 0.000000 0.000000
										CHANNELS 3 Zrotation Yrotation Xrotation
										End Site
										{
											OFFSET 0.000000 0.000000 0.000000
										}
									}
								}
								JOINT RightArmEnd
								{
									OFFSET 0.000000 0.000000 0.000000
									CHANNELS 3 Zrotation Yrotation Xrotation
									End Site
									{
										OFFSET 0.000000 0.000000 0.000000
									}
								}
							}
						}
					}
					JOINT LeftShoulder
					{
						OFFSET 2.625389 11.175210 0.000000
						CHANNELS 3 Zrotation Yrotation Xrotation
						JOINT LeftArm
						{
							OFFSET -0.000000 10.813635 -0.000000
							CHANNELS 3 Zrotation Yrotation Xrotation
							JOINT LeftForeArm
							{
								OFFSET -0.000000 28.724781 0.000000
								CHANNELS 3 Zrotation Yrotation Xrotation
								JOINT LeftHand
								{
									OFFSET 0.644384 25.716167 -0.328871
									CHANNELS 3 Zrotation Yrotation Xrotation
									JOINT LeftHandThumb1
									{
										OFFSET 2.867323 3.959563 2.944291
										CHANNELS 3 Zrotation Yrotation Xrotation
										JOINT LeftHandThumb2
										{
											OFFSET 0.000000 3.350399 0.000000
											CHANNELS 3 Zrotation Yrotation Xrotation
											JOINT LeftHandThumb3
											{
												OFFSET 0.000000 3.756509 0.000000
												CHANNELS 3 Zrotation Yrotation Xrotation
												JOINT LeftHandThumb4
												{
													OFFSET -0.000000 3.100000 -0.000000
													CHANNELS 3 Zrotation Yrotation Xrotation
													End Site
													{
														OFFSET 0.000000 0.000000 0.000000
													}
												}
											}
										}
									}
									JOINT LeftHandIndex1
									{
										OFFSET 0.086752 10.030893 2.345280
										CHANNELS 3 Zrotation Yrotation Xrotation
										JOINT LeftHandIndex2
										{
											OFFSET 0.000000 4.061090 0.000000
											CHANNELS 3 Zrotation Yrotation Xrotation
											JOINT LeftHandIndex3
											{
												OFFSET -0.000000 3.248873 -0.000000
												CHANNELS 3 Zrotation Yrotation Xrotation
												JOINT LeftHandIndex4
												{
													OFFSET -0.000000 2.639709 0.000000
													CHANNELS 3 Zrotation Yrotation Xrotation
													End Site
													{
														OFFSET 0.000000 0.000000 0.000000
													}
												}
											}
										}
									}
									JOINT LeftHandMiddle1
									{
										OFFSET -0.104102 9.502952 0.006768
										CHANNELS 3 Zrotation Yrotation Xrotation
										JOINT LeftHandMiddle2
										{
											OFFSET -0.000000 4.568727 0.000000
											CHANNELS 3 Zrotation Yrotation Xrotation
											JOINT LeftHandMiddle3
											{
												OFFSET -0.000000 3.654981 0.000000
												CHANNELS 3 Zrotation Yrotation Xrotation
												JOINT LeftHandMiddle4
												{
													OFFSET 0.000000 2.741236 0.000000
													CHANNELS 3 Zrotation Yrotation Xrotation
													End Site
													{
														OFFSET 0.000000 0.000000 0.000000
													}
												}
											}
										}
									}
									JOINT LeftHandRing1
									{
										OFFSET -0.086752 8.921708 -2.267442
										CHANNELS 3 Zrotation Yrotation Xrotation
										JOINT LeftHandRing2
										{
											OFFSET 0.000000 4.061090 0.000000
											CHANNELS 3 Zrotation Yrotation Xrotation
											JOINT LeftHandRing3
											{
												OFFSET 0.000000 3.654981 0.000000
												CHANNELS 3 Zrotation Yrotation Xrotation
												JOINT LeftHandRing4
												{
													OFFSET 0.000000 2.741236 -0.000000
													CHANNELS 3 Zrotation Yrotation Xrotation
													End Site
													{
														OFFSET 0.000000 0.000000 0.000000
													}
												}
											}
										}
									}
									JOINT LeftHandPinky1
									{
										OFFSET 0.173504 7.976997 -4.467199
										CHANNELS 3 Zrotation Yrotation Xrotation
										JOINT LeftHandPinky2
										{
											OFFSET 0.000000 3.350399 -0.000000
											CHANNELS 3 Zrotation Yrotation Xrotation
											JOINT LeftHandPinky3
											{
												OFFSET 0.000000 2.842763 -0.000000
												CHANNELS 3 Zrotation Yrotation Xrotation
												JOINT LeftHandPinky4
												{
													OFFSET -0.000000 2.639709 -0.000000
													CHANNELS 3 Zrotation Yrotation Xrotation
													End Site
													{
														OFFSET 0.000000 0.000000 0.000000
													}
												}
											}
										}
									}
									JOINT LeftForeArmEnd
									{
										OFFSET 0.000000 0.000000 0.000000
										CHANNELS 3 Zrotation Yrotation Xrotation
										End Site
										{
											OFFSET 0.000000 0.000000 0.000000
										}
									}
								}
								JOINT LeftArmEnd
								{
									OFFSET 0.000000 0.000000 0.000000
									CHANNELS 3 Zrotation Yrotation Xrotation
									End Site
									{
										OFFSET 0.000000 0.000000 0.000000
									}
								}
							}
						}
					}
				}
			}
		}
	}
	JOINT RightUpLeg
	{
		OFFSET -11.289943 -0.000000 0.000000
		CHANNELS 3 Zrotation Yrotation Xrotation
		JOINT RightLeg
		{
			OFFSET 0.000000 -38.200325 -0.000000
			CHANNELS 3 Zrotation Yrotation Xrotation
			JOINT RightFoot
			{
				OFFSET 0.000000 -39.900856 0.000000
				CHANNELS 3 Zrotation Yrotation Xrotation
				JOINT RightToeBase
				{
					OFFSET -0.000000 -0.000000 15.261641
					CHANNELS 3 Zrotation Yrotation Xrotation
					JOINT RightToeBaseEnd
					{
						OFFSET 0.000000 0.000000 7.370709
						CHANNELS 3 Zrotation Yrotation Xrotation
						End Site
						{
							OFFSET 0.000000 0.000000 0.000000
						}
					}
				}
				JOINT RightLegEnd
				{
					OFFSET 0.000000 0.000000 0.000000
					CHANNELS 3 Zrotation Yrotation Xrotation
					End Site
					{
						OFFSET 0.000000 0.000000 0.000000
					}
				}
			}
			JOINT RightUpLegEnd
			{
				OFFSET 0.000000 0.000000 0.000000
				CHANNELS 3 Zrotation Yrotation Xrotation
				End Site
				{
					OFFSET 0.000000 0.000000 0.000000
				}
			}
		}
	}
	JOINT LeftUpLeg
	{
		OFFSET 11.315661 0.000000 0.000000
		CHANNELS 3 Zrotation Yrotation Xrotation
		JOINT LeftLeg
		{
			OFFSET -0.000000 -38.200325 0.000000
			CHANNELS 3 Zrotation Yrotation Xrotation
			JOINT LeftFoot
			{
				OFFSET 0.000000 -39.900856 0.000000
				CHANNELS 3 Zrotation Yrotation Xrotation
				JOINT LeftToeBase
				{
					OFFSET 0.000000 -0.000000 15.261641
					CHANNELS 3 Zrotation Yrotation Xrotation
					JOINT LeftToeBaseEnd
					{
						OFFSET -0.000000 0.000000 7.539996
						CHANNELS 3 Zrotation Yrotation Xrotation
						End Site
						{
							OFFSET 0.000000 0.000000 0.000000
						}
					}
				}
				JOINT LeftLegEnd
				{
					OFFSET 0.000000 0.000000 0.000000
					CHANNELS 3 Zrotation Yrotation Xrotation
					End Site
					{
						OFFSET 0.000000 0.000000 0.000000
					}
				}
			}
			JOINT LeftUpLegEnd
			{
				OFFSET 0.000000 0.000000 0.000000
				CHANNELS 3 Zrotation Yrotation Xrotation
				End Site
				{
					OFFSET 0.000000 0.000000 0.000000
				}
			}
		}
	}
}
MOTION
Frames: 4
Frame Time: 0.016667
-5.682827 87.172653 7.209157 -1.316038 0.116682 -19.546379 3.125495 -0.586092 9.451632 -0.354135 0.004831 0.668100 -0.451435 -2.419750 15.417149 -0.602345 -0.672588 9.150054 3.029824 -2.358887 12.055607 0.296477 -0.600394 -0.487050 0.262475 -1.063744 -22.290863 0.000000 0.000000 0.000000 93.648895 -1.373024 10.891118 54.756866 -14.736986 10.926997 -0.260283 22.648724 26.591599 19.747334 39.998756 2.504585 10.730905 -1.861305 39.812099 0.000009 0.000013 -26.365280 -0.000001 0.000058 -18.326849 0.000005 0.000005 -0.000022 13.667385 0.119569 -7.965866 9.333927 -0.080975 0.052530 9.307391 -0.066573 0.017886 -0.000023 0.000042 -0.000007 12.856504 0.034618 -9.429342 8.956995 -0.040577 -0.004691 9.046769 -0.012006 -0.006978 0.000001 -0.000058 -0.000011 14.786470 -0.050041 -10.346003 10.467559 0.060377 0.050530 10.405977 0.012442 0.041285 0.000000 -0.000988 0.000012 16.080746 -0.120432 -12.495444 11.569520 0.121906 0.404668 11.590905 0.015891 0.310007 -0.000601 -0.000002 -0.000022 0.000000 0.000000 0.000000 0.000000 0.000000 0.000000 -90.681763 0.138395 7.348787 -61.368118 4.681906 4.190293 -1.119628 -17.318575 49.307343 -18.336449 -51.889465 0.130667 -10.266448 1.790929 39.989292 0.000006 0.000037 -25.466438 0.000007 -0.000010 -17.620611 0.002058 -0.000001 -0.000815 -12.882879 0.144856 -5.072444 -8.519504 -0.051868 -0.038908 -8.487845 -0.025764 0.008851 -0.000003 -0.000702 -0.000017 -12.603869 0.051692 -7.511064 -8.502098 -0.028978 0.000097 -8.391356 -0.000195 -0.003627 0.001894 -0.000016 0.000036 -15.385509 -0.027482 -10.106403 -10.314205 0.053143 -0.049653 -10.215588 0.005672 -0.025439 -0.000458 0.000012 -0.000008 -17.389254 -0.078280 -13.220176 -11.796857 0.121480 -0.217448 -11.649415 0.007124 -0.185886 -0.000469 0.000007 -0.000037 0.000000 0.000000 0.000000 0.000000 0.000000 0.000000 -2.598995 -8.731123 23.191208 -0.134649 -0.747641 11.403429 -0.009696 -11.308714 11.916553 -1.039678 1.119287 -15.332315 0.000000 0.000000 0.000000 0.000000 0.000000 0.000000 0.000000 0.000000 0.000000 7.007188 -4.885221 18.539978 0.366514 1.138806 16.233173 -3.597077 1.419961 10.569295 1.055591 -1.268143 -18.894409 0.000000 0.000000 0.000000 0.000000 0.000000 0.000000 0.000000 0.000000 0.000000 
-5.668773 87.173790 7.202190 -1.313390 0.171167 -19.540077 3.112595 -0.580094 9.467279 -0.340000 0.004252 0.656052 -0.463765 -2.402772 15.423295 -0.606374 -0.670603 9.132833 2.987684 -2.392964 12.102256 0.282674 -0.659337 -0.462057 0.262542 -1.066386 -22.272900 0.000000 0.000000 0.000000 93.723595 -1.374833 10.948089 54.717293 -15.501322 11.118673 -0.262453 22.388344 25.987545 19.181276 39.452686 2.031587 10.726051 -1.862234 39.813324 0.000009 0.000013 -26.355949 -0.000000 0.000058 -18.319788 0.000005 0.000005 -0.000022 13.638724 0.117802 -8.139474 9.330748 -0.081127 0.053504 9.308787 -0.066428 0.017402 -0.000023 0.000042 -0.000007 12.847690 0.034211 -9.577312 8.952135 -0.040563 -0.004437 9.041585 -0.012021 -0.006997 0.000001 -0.000059 -0.000011 14.819092 -0.050067 -10.418212 10.477139 0.059713 0.051349 10.417459 0.012021 0.041535 0.000000 -0.001005 0.000012 16.133345 -0.121325 -12.505253 11.582564 0.120072 0.402952 11.601159 0.014365 0.308212 -0.000602 -0.000002 -0.000021 0.000000 0.000000 0.000000 0.000000 0.000000 0.000000 -90.719368 0.145484 7.398396 -61.376740 5.320830 4.277562 -1.120566 -17.078604 48.542419 -17.023848 -51.333794 -1.084213 -10.280984 1.794329 39.983517 0.000006 0.000036 -25.490122 0.000010 -0.000010 -17.638451 0.002036 -0.000002 -0.000799 -12.980576 0.144180 -5.287170 -8.534431 -0.052066 -0.039292 -8.506813 -0.026071 0.007985 -0.000003 -0.000680 -0.000017 -12.669805 0.051534 -7.664665 -8.507283 -0.029127 0.000219 -8.399949 -0.000334 -0.003969 0.001813 -0.000017 0.000039 -15.422642 -0.027071 -10.164655 -10.307366 0.053536 -0.049503 -10.211327 0.005904 -0.025082 -0.000473 0.000012 -0.000008 -17.409031 -0.078527 -13.192343 -11.777603 0.121806 -0.218521 -11.630649 0.007268 -0.187027 -0.000464 0.000006 -0.000038 0.000000 0.000000 0.000000 0.000000 0.000000 0.000000 -2.628052 -8.733352 23.173250 -0.135291 -0.748333 11.429996 0.009017 -11.340059 11.903493 -1.038147 1.118153 -15.334815 0.000000 0.000000 0.000000 0.000000 0.000000 0.000000 0.000000 0.000000 0.000000 6.979744 -4.898019 18.503132 0.365762 1.136227 16.247334 -3.553124 1.416204 10.588165 1.052721 -1.265433 -18.894266 0.000000 0.000000 0.000000 0.000000 0.000000 0.000000 0.000000 0.000000 0.000000 
-5.655656 87.174767 7.194049 -1.313201 0.221794 -19.529718 3.099100 -0.575340 9.481524 -0.326617 0.002507 0.646846 -0.472410 -2.388859 15.427226 -0.611253 -0.669221 9.116498 2.954491 -2.429113 12.145847 0.268594 -0.717852 -0.437064 0.263273 -1.068003 -22.253616 0.000000 0.000000 0.000000 93.787949 -1.377990 11.000317 54.693138 -16.314840 11.302892 -0.271278 22.082779 25.453741 18.636314 38.839085 1.624456 10.721143 -1.862721 39.815060 0.000009 0.000014 -26.345757 -0.000000 0.000058 -18.311993 0.000005 0.000005 -0.000023 13.612319 0.115810 -8.304585 9.330391 -0.080890 0.054975 9.312674 -0.065930 0.017560 -0.000023 0.000042 -0.000007 12.838827 0.033776 -9.720914 8.949443 -0.040414 -0.004104 9.038144 -0.011891 -0.006915 0.000001 -0.000058 -0.000011 14.853366 -0.050175 -10.488090 10.488933 0.058757 0.052156 10.431299 0.011394 0.041807 -0.000000 -0.001011 0.000012 16.188847 -0.122151 -12.511837 11.597017 0.117220 0.401665 11.613202 0.011987 0.306842 -0.000603 -0.000002 -0.000020 0.000000 0.000000 0.000000 0.000000 0.000000 0.000000 -90.747955 0.148868 7.446735 -61.400707 6.007171 4.354109 -1.119995 -16.799976 47.816883 -15.851490 -50.624969 -2.193218 -10.292829 1.797252 39.979500 0.000006 0.000036 -25.504581 0.000013 -0.000009 -17.650703 0.002015 -0.000003 -0.000778 -13.063217 0.143546 -5.513908 -8.545724 -0.051978 -0.039340 -8.521939 -0.026023 0.007374 -0.000003 -0.000656 -0.000017 -12.720241 0.051434 -7.835081 -8.507658 -0.029202 0.000442 -8.403491 -0.000413 -0.004253 0.001732 -0.000017 0.000042 -15.440465 -0.026613 -10.245831 -10.293253 0.053719 -0.049686 -10.198801 0.005976 -0.024915 -0.000483 0.000012 -0.000008 -17.402855 -0.078511 -13.190821 -11.748063 0.121325 -0.220718 -11.602098 0.006816 -0.188887 -0.000459 0.000006 -0.000038 0.000000 0.000000 0.000000 0.000000 0.000000 0.000000 -2.652970 -8.733242 23.151165 -0.135832 -0.748944 11.457369 0.028133 -11.376459 11.894665 -1.036826 1.117303 -15.340855 0.000000 0.000000 0.000000 0.000000 0.000000 0.000000 0.000000 0.000000 0.000000 6.953432 -4.911364 18.460388 0.364979 1.133657 16.266790 -3.509537 1.409684 10.605766 1.049402 -1.262163 -18.897581 0.000000 0.000000 0.000000 0.000000 0.000000 0.000000 0.000000 0.000000 0.000000 
-5.643319 87.175575 7.185652 -1.314403 0.270035 -19.514679 3.084208 -0.571274 9.492782 -0.313340 -0.000398 0.639801 -0.480413 -2.376465 15.429347 -0.616764 -0.668590 9.100043 2.926878 -2.463148 12.184161 0.254690 -0.773482 -0.413288 0.263963 -1.068774 -22.230886 0.000000 0.000000 0.000000 93.846611 -1.383196 11.048549 54.685772 -17.171206 11.481527 -0.285342 21.737825 24.988344 18.110340 38.149517 1.274123 10.716483 -1.862752 39.817265 0.000009 0.000014 -26.335148 0.000000 0.000058 -18.303629 0.000005 0.000005 -0.000023 13.598057 0.113646 -8.458265 9.337497 -0.080326 0.057064 9.324033 -0.065140 0.018486 -0.000022 0.000042 -0.000007 12.839583 0.033303 -9.855932 8.953794 -0.040142 -0.003600 9.041199 -0.011643 -0.006620 0.000000 -0.000057 -0.000011 14.897495 -0.050398 -10.551645 10.508251 0.057556 0.052781 10.452525 0.010588 0.041987 -0.000000 -0.001004 0.000012 16.253284 -0.122932 -12.511561 11.617887 0.113516 0.400481 11.632136 0.008852 0.305707 -0.000604 -0.000002 -0.000019 0.000000 0.000000 0.000000 0.000000 0.000000 0.000000 -90.770660 0.149867 7.495018 -61.445396 6.747667 4.418908 -1.115599 -16.481451 47.148701 -14.808213 -49.781494 -3.201968 -10.302992 1.799792 39.976624 0.000006 0.000036 -25.513098 0.000016 -0.000009 -17.659710 0.001994 -0.000004 -0.000755 -13.141611 0.142976 -5.740787 -8.558048 -0.051669 -0.039371 -8.537984 -0.025690 0.006697 -0.000002 -0.000630 -0.000017 -12.768846 0.051401 -8.010874 -8.508024 -0.029215 0.000591 -8.406660 -0.000459 -0.004621 0.001653 -0.000017 0.000045 -15.453557 -0.026170 -10.338881 -10.277795 0.053769 -0.049755 -10.183799 0.005933 -0.024642 -0.000486 0.000012 -0.000008 -17.385183 -0.078403 -13.203860 -11.714192 0.120237 -0.222756 -11.569466 0.005940 -0.190421 -0.000454 0.000006 -0.000038 0.000000 0.000000 0.000000 0.000000 0.000000 0.000000 -2.674603 -8.732205 23.126553 -0.136315 -0.749464 11.481726 0.048809 -11.415991 11.891029 -1.035716 1.116691 -15.350709 0.000000 0.000000 0.000000 0.000000 0.000000 0.000000 0.000000 0.000000 0.000000 6.928226 -4.926649 18.412550 0.364233 1.131226 16.289639 -3.468084 1.399815 10.621717 1.045773 -1.258501 -18.903936 0.000000 0.000000 0.000000 0.000000 0.000000 0.000000 0.000000 0.000000 0.000000 
